<mxfile host="app.diagrams.net" agent="Mozilla/5.0 (Windows NT 10.0; Win64; x64) AppleWebKit/537.36 (KHTML, like Gecko) Chrome/135.0.0.0 Safari/537.36" version="26.2.13">
  <diagram name="第 1 页" id="RK67OSI8cogcYwi-WMlT">
    <mxGraphModel dx="1190" dy="619" grid="1" gridSize="10" guides="1" tooltips="1" connect="1" arrows="1" fold="1" page="1" pageScale="1" pageWidth="827" pageHeight="1169" math="0" shadow="0">
      <root>
        <mxCell id="0" />
        <mxCell id="1" parent="0" />
        <mxCell id="HOZD4uC3_78dBwo-plvv-2" value="&lt;font face=&quot;Comic Sans MS&quot;&gt;cherry stu&lt;span style=&quot;background-color: transparent; color: light-dark(rgb(0, 0, 0), rgb(255, 255, 255));&quot;&gt;dio&lt;/span&gt;&lt;/font&gt;" style="rounded=0;whiteSpace=wrap;html=1;sketch=1;curveFitting=1;jiggle=2;" vertex="1" parent="1">
          <mxGeometry x="50" y="180" width="120" height="60" as="geometry" />
        </mxCell>
        <mxCell id="HOZD4uC3_78dBwo-plvv-3" value="&lt;font face=&quot;Comic Sans MS&quot;&gt;n8n&lt;/font&gt;" style="rounded=0;whiteSpace=wrap;html=1;sketch=1;curveFitting=1;jiggle=2;" vertex="1" parent="1">
          <mxGeometry x="50" y="290" width="120" height="60" as="geometry" />
        </mxCell>
        <mxCell id="HOZD4uC3_78dBwo-plvv-4" value="&lt;font face=&quot;Comic Sans MS&quot;&gt;code...&lt;/font&gt;" style="rounded=0;whiteSpace=wrap;html=1;sketch=1;curveFitting=1;jiggle=2;" vertex="1" parent="1">
          <mxGeometry x="50" y="400" width="120" height="60" as="geometry" />
        </mxCell>
        <mxCell id="HOZD4uC3_78dBwo-plvv-12" value="" style="endArrow=classic;html=1;rounded=0;entryX=0;entryY=0.5;entryDx=0;entryDy=0;exitX=1;exitY=0.5;exitDx=0;exitDy=0;sketch=1;curveFitting=1;jiggle=2;" edge="1" parent="1" source="HOZD4uC3_78dBwo-plvv-2" target="HOZD4uC3_78dBwo-plvv-25">
          <mxGeometry width="50" height="50" relative="1" as="geometry">
            <mxPoint x="390" y="410" as="sourcePoint" />
            <mxPoint x="371" y="317" as="targetPoint" />
          </mxGeometry>
        </mxCell>
        <mxCell id="HOZD4uC3_78dBwo-plvv-13" value="" style="endArrow=classic;html=1;rounded=0;exitX=1;exitY=0.5;exitDx=0;exitDy=0;sketch=1;curveFitting=1;jiggle=2;entryX=0;entryY=0.5;entryDx=0;entryDy=0;" edge="1" parent="1" source="HOZD4uC3_78dBwo-plvv-4" target="HOZD4uC3_78dBwo-plvv-25">
          <mxGeometry width="50" height="50" relative="1" as="geometry">
            <mxPoint x="180" y="220" as="sourcePoint" />
            <mxPoint x="450" y="270" as="targetPoint" />
          </mxGeometry>
        </mxCell>
        <mxCell id="HOZD4uC3_78dBwo-plvv-14" value="" style="endArrow=classic;html=1;rounded=0;exitX=1;exitY=0.5;exitDx=0;exitDy=0;sketch=1;curveFitting=1;jiggle=2;entryX=0;entryY=0.5;entryDx=0;entryDy=0;" edge="1" parent="1" source="HOZD4uC3_78dBwo-plvv-3" target="HOZD4uC3_78dBwo-plvv-25">
          <mxGeometry width="50" height="50" relative="1" as="geometry">
            <mxPoint x="190" y="230" as="sourcePoint" />
            <mxPoint x="450" y="273" as="targetPoint" />
          </mxGeometry>
        </mxCell>
        <mxCell id="HOZD4uC3_78dBwo-plvv-21" value="" style="group" vertex="1" connectable="0" parent="1">
          <mxGeometry x="400" y="110" width="166" height="50" as="geometry" />
        </mxCell>
        <mxCell id="HOZD4uC3_78dBwo-plvv-17" value="&lt;font face=&quot;Comic Sans MS&quot; style=&quot;font-size: 14px;&quot;&gt;MCP server&lt;/font&gt;" style="rounded=0;whiteSpace=wrap;html=1;glass=0;shadow=0;fillStyle=hatch;align=center;sketch=1;curveFitting=1;jiggle=2;labelPosition=center;verticalLabelPosition=middle;verticalAlign=middle;" vertex="1" parent="HOZD4uC3_78dBwo-plvv-21">
          <mxGeometry width="166" height="50" as="geometry" />
        </mxCell>
        <mxCell id="HOZD4uC3_78dBwo-plvv-25" value="&lt;font face=&quot;Comic Sans MS&quot;&gt;AI agent&lt;/font&gt;" style="rounded=0;whiteSpace=wrap;html=1;sketch=1;curveFitting=1;jiggle=2;" vertex="1" parent="1">
          <mxGeometry x="310" y="250" width="200" height="70" as="geometry" />
        </mxCell>
        <mxCell id="HOZD4uC3_78dBwo-plvv-26" value="&lt;font face=&quot;Comic Sans MS&quot;&gt;Splitter&lt;/font&gt;" style="rounded=0;whiteSpace=wrap;html=1;sketch=1;curveFitting=1;jiggle=2;" vertex="1" parent="1">
          <mxGeometry x="440" y="430" width="70" height="30" as="geometry" />
        </mxCell>
        <mxCell id="HOZD4uC3_78dBwo-plvv-27" value="loader" style="rounded=0;whiteSpace=wrap;html=1;sketch=1;curveFitting=1;jiggle=2;" vertex="1" parent="1">
          <mxGeometry x="440" y="370" width="70" height="30" as="geometry" />
        </mxCell>
        <mxCell id="HOZD4uC3_78dBwo-plvv-34" value="" style="group;sketch=1;curveFitting=1;jiggle=2;labelPosition=left;verticalLabelPosition=top;align=right;verticalAlign=bottom;" vertex="1" connectable="0" parent="1">
          <mxGeometry x="620" y="20" width="170" height="100" as="geometry" />
        </mxCell>
        <mxCell id="HOZD4uC3_78dBwo-plvv-31" value="&lt;font face=&quot;Comic Sans MS&quot;&gt;cloud&lt;/font&gt;" style="ellipse;shape=cloud;whiteSpace=wrap;html=1;labelPosition=center;verticalLabelPosition=middle;align=left;verticalAlign=middle;sketch=1;curveFitting=1;jiggle=2;" vertex="1" parent="HOZD4uC3_78dBwo-plvv-34">
          <mxGeometry width="150" height="100" as="geometry" />
        </mxCell>
        <mxCell id="HOZD4uC3_78dBwo-plvv-32" value="&lt;font face=&quot;Comic Sans MS&quot;&gt;milvus&lt;/font&gt;" style="strokeWidth=2;html=1;shape=mxgraph.flowchart.database;whiteSpace=wrap;sketch=1;curveFitting=1;jiggle=2;" vertex="1" parent="HOZD4uC3_78dBwo-plvv-34">
          <mxGeometry x="53" y="25" width="44" height="50" as="geometry" />
        </mxCell>
        <mxCell id="HOZD4uC3_78dBwo-plvv-36" value="" style="endArrow=classic;html=1;rounded=0;entryX=0.13;entryY=0.77;entryDx=0;entryDy=0;exitX=1;exitY=0.5;exitDx=0;exitDy=0;entryPerimeter=0;sketch=1;curveFitting=1;jiggle=2;" edge="1" parent="1" source="HOZD4uC3_78dBwo-plvv-17" target="HOZD4uC3_78dBwo-plvv-31">
          <mxGeometry width="50" height="50" relative="1" as="geometry">
            <mxPoint x="180" y="220" as="sourcePoint" />
            <mxPoint x="320" y="295" as="targetPoint" />
          </mxGeometry>
        </mxCell>
        <mxCell id="HOZD4uC3_78dBwo-plvv-37" value="" style="endArrow=classic;html=1;rounded=0;entryX=0.472;entryY=1.007;entryDx=0;entryDy=0;exitX=0.5;exitY=0;exitDx=0;exitDy=0;sketch=1;curveFitting=1;jiggle=2;entryPerimeter=0;" edge="1" parent="1" source="HOZD4uC3_78dBwo-plvv-25" target="HOZD4uC3_78dBwo-plvv-17">
          <mxGeometry width="50" height="50" relative="1" as="geometry">
            <mxPoint x="190" y="230" as="sourcePoint" />
            <mxPoint x="330" y="305" as="targetPoint" />
          </mxGeometry>
        </mxCell>
        <mxCell id="HOZD4uC3_78dBwo-plvv-38" value="&lt;font face=&quot;Comic Sans MS&quot;&gt;embeddings&lt;/font&gt;" style="rounded=0;whiteSpace=wrap;html=1;sketch=1;curveFitting=1;jiggle=2;" vertex="1" parent="1">
          <mxGeometry x="325" y="370" width="70" height="30" as="geometry" />
        </mxCell>
        <mxCell id="HOZD4uC3_78dBwo-plvv-40" value="" style="endArrow=classic;html=1;rounded=0;entryX=0.25;entryY=1;entryDx=0;entryDy=0;exitX=0.5;exitY=0;exitDx=0;exitDy=0;sketch=1;curveFitting=1;jiggle=2;" edge="1" parent="1" source="HOZD4uC3_78dBwo-plvv-38" target="HOZD4uC3_78dBwo-plvv-25">
          <mxGeometry width="50" height="50" relative="1" as="geometry">
            <mxPoint x="420" y="260" as="sourcePoint" />
            <mxPoint x="488" y="170" as="targetPoint" />
          </mxGeometry>
        </mxCell>
        <mxCell id="HOZD4uC3_78dBwo-plvv-43" value="" style="endArrow=classic;html=1;rounded=0;entryX=0.821;entryY=0.993;entryDx=0;entryDy=0;exitX=0.5;exitY=0;exitDx=0;exitDy=0;sketch=1;curveFitting=1;jiggle=2;entryPerimeter=0;" edge="1" parent="1" source="HOZD4uC3_78dBwo-plvv-27" target="HOZD4uC3_78dBwo-plvv-25">
          <mxGeometry width="50" height="50" relative="1" as="geometry">
            <mxPoint x="430" y="270" as="sourcePoint" />
            <mxPoint x="498" y="180" as="targetPoint" />
          </mxGeometry>
        </mxCell>
        <mxCell id="HOZD4uC3_78dBwo-plvv-44" value="" style="endArrow=classic;html=1;rounded=0;entryX=0.5;entryY=1;entryDx=0;entryDy=0;exitX=0.5;exitY=0;exitDx=0;exitDy=0;sketch=1;curveFitting=1;jiggle=2;" edge="1" parent="1" source="HOZD4uC3_78dBwo-plvv-26" target="HOZD4uC3_78dBwo-plvv-27">
          <mxGeometry width="50" height="50" relative="1" as="geometry">
            <mxPoint x="440" y="280" as="sourcePoint" />
            <mxPoint x="508" y="190" as="targetPoint" />
          </mxGeometry>
        </mxCell>
        <mxCell id="HOZD4uC3_78dBwo-plvv-45" value="&lt;font style=&quot;font-size: 19px;&quot;&gt;Ai knowledge Arch&lt;/font&gt;&lt;span style=&quot;font-size: 19px;&quot;&gt;&amp;nbsp;&lt;/span&gt;" style="text;html=1;align=center;verticalAlign=middle;resizable=0;points=[];autosize=1;strokeColor=none;fillColor=none;shadow=0;glass=0;rounded=0;fontFamily=Comic Sans MS;fontStyle=0" vertex="1" parent="1">
          <mxGeometry x="35" y="40" width="190" height="40" as="geometry" />
        </mxCell>
      </root>
    </mxGraphModel>
  </diagram>
</mxfile>
